<?xml version="1.0" encoding="utf-8"?>
<!-- Generator: Adobe Illustrator 26.0.1, SVG Export Plug-In . SVG Version: 6.00 Build 0)  -->
<svg version="1.1" id="Layer_1" xmlns="http://www.w3.org/2000/svg" xmlns:xlink="http://www.w3.org/1999/xlink" x="0px" y="0px"
	 viewBox="0 0 446.5 127.6" style="enable-background:new 0 0 446.5 127.6;" xml:space="preserve">
<style type="text/css">
	.st0{fill:#171444;}
	.st1{fill:url(#SVGID_1_);}
	.st2{fill:url(#SVGID_00000036948677852950648810000009137800724173589949_);}
	.st3{fill:url(#SVGID_00000176723816785750209000000017158547647218283939_);}
	.st4{fill:url(#SVGID_00000085956035380036704060000000988042621500955310_);}
	.st5{fill:none;}
	.st6{fill:#010101;}
	.st7{fill:#263C92;}
</style>
<path class="st0" d="M12.6,1.9c0,0-10.4,0-10.4,10.4v102.7c0,0,0,10.4,10.4,10.4h102.7c0,0,10.4,0,10.4-10.4V12.2
	c0,0,0-10.4-10.4-10.4H12.6z"/>
<g>
	<g>
		
			<linearGradient id="SVGID_1_" gradientUnits="userSpaceOnUse" x1="367.6157" y1="75.6601" x2="401.3889" y2="75.6601" gradientTransform="matrix(0.616 -0.7878 0.7878 0.616 -236.0366 340.8513)">
			<stop  offset="0" style="stop-color:#C2489A"/>
			<stop  offset="0.3999" style="stop-color:#C1489A"/>
			<stop  offset="0.5524" style="stop-color:#BC499B"/>
			<stop  offset="0.6626" style="stop-color:#B3499B"/>
			<stop  offset="0.7525" style="stop-color:#A74A9B"/>
			<stop  offset="0.8299" style="stop-color:#974A9C"/>
			<stop  offset="0.8988" style="stop-color:#834A9D"/>
			<stop  offset="0.9598" style="stop-color:#6C4A9D"/>
			<stop  offset="1" style="stop-color:#564A9E"/>
		</linearGradient>
		<path class="st1" d="M58.1,61.3l25.4,19.8c0.3,0.2,0.3,0.6,0.1,0.9l-20,25.6c-0.2,0.3-0.6,0.3-0.9,0.1L37.3,87.9
			C37,87.7,37,87.3,37.2,87l20-25.6C57.4,61.2,57.8,61.1,58.1,61.3z"/>
		
			<linearGradient id="SVGID_00000178896369120919416850000004121972757620324014_" gradientUnits="userSpaceOnUse" x1="373.3632" y1="75.6552" x2="408.4718" y2="75.6552" gradientTransform="matrix(0.616 -0.7878 0.7878 0.616 -236.0366 340.8513)">
			<stop  offset="6.126958e-07" style="stop-color:#89469A"/>
			<stop  offset="0.4407" style="stop-color:#88469A"/>
			<stop  offset="0.6305" style="stop-color:#82479B"/>
			<stop  offset="0.772" style="stop-color:#79489B"/>
			<stop  offset="0.8888" style="stop-color:#6C499C"/>
			<stop  offset="0.9906" style="stop-color:#584A9E"/>
			<stop  offset="1" style="stop-color:#564A9E"/>
		</linearGradient>
		<path style="fill:url(#SVGID_00000178896369120919416850000004121972757620324014_);" d="M48.9,89.7l9.2,7.2
			c1.7-2.2,5-2.6,7.2-0.9l18.5-23.6L66.5,58.9L48,82.5C50.3,84.3,50.7,87.5,48.9,89.7z"/>
	</g>
	
		<linearGradient id="SVGID_00000168829238199100876370000004469669563717936567_" gradientUnits="userSpaceOnUse" x1="390.1978" y1="36.5868" x2="432.9103" y2="110.5672" gradientTransform="matrix(0.616 -0.7878 0.7878 0.616 -236.0366 340.8513)">
		<stop  offset="0" style="stop-color:#4784C5"/>
		<stop  offset="3.862345e-02" style="stop-color:#488FCD"/>
		<stop  offset="0.1075" style="stop-color:#4AA0D8"/>
		<stop  offset="0.1868" style="stop-color:#4DAEE2"/>
		<stop  offset="0.2793" style="stop-color:#4FB9EA"/>
		<stop  offset="0.3938" style="stop-color:#51C1EF"/>
		<stop  offset="0.5543" style="stop-color:#52C6F3"/>
		<stop  offset="1" style="stop-color:#51C8F4"/>
	</linearGradient>
	<path style="fill:url(#SVGID_00000168829238199100876370000004469669563717936567_);" d="M57.7,19.2L37.1,45.6l27.7,21.7
		c10.3,8.4,12.1,23.5,3.9,34l15-19.2l0,0l0,0l0,0c11.4-14.6,8.8-35.6-5.8-47L57.7,19.2z"/>
	<g>
		<g>
			<g>
				<g>
					<defs>
						<path id="SVGID_00000163040942270290102520000010269277335929848732_" d="M55.7,21.8L39.1,43c-1.1,1.4-0.9,3.5,0.6,4.6
							l25.1,19.7c10.3,8.4,12.1,23.5,3.9,34l15-19.2l0,0l0,0l0,0c11.4-14.6,8.8-35.6-5.8-47L60.3,21.2
							C58.8,20.1,56.8,20.4,55.7,21.8z"/>
					</defs>
					<clipPath id="SVGID_00000121974004803889057190000014364250215005629347_">
						<use xlink:href="#SVGID_00000163040942270290102520000010269277335929848732_"  style="overflow:visible;"/>
					</clipPath>
				</g>
			</g>
			<g>
				<g>
					
						<linearGradient id="SVGID_00000161627870313681654460000004327008413208646801_" gradientUnits="userSpaceOnUse" x1="411.9323" y1="39.0236" x2="411.9323" y2="92.4032" gradientTransform="matrix(0.616 -0.7878 0.7878 0.616 -236.0366 340.8513)">
						<stop  offset="8.471185e-07" style="stop-color:#426CB2"/>
						<stop  offset="2.818482e-02" style="stop-color:#436FB5"/>
						<stop  offset="0.2661" style="stop-color:#478BC9"/>
						<stop  offset="0.49" style="stop-color:#4BA4DB"/>
						<stop  offset="0.6937" style="stop-color:#4FB7E8"/>
						<stop  offset="0.8703" style="stop-color:#52C3F0"/>
						<stop  offset="1" style="stop-color:#51C8F4"/>
					</linearGradient>
					<path style="fill:url(#SVGID_00000161627870313681654460000004327008413208646801_);" d="M83.6,82L83.6,82L83.6,82
						c6.2-7.9,8.3-17.8,6.5-27c-1.4-3.1-3.6-5.9-6.5-8.2l-21-16.4c-1.7,2.2-5,2.6-7.2,0.9l-7.2,9.2c2.2,1.7,2.6,5,0.9,7.2L72,65.7
						c6.1,5.3,8.9,13.1,8.2,20.7L83.6,82L83.6,82z"/>
				</g>
				<g>
					<path class="st5" d="M55.7,21.8L39.1,43c-1.1,1.4-0.9,3.5,0.6,4.6l25.1,19.7c10.3,8.4,12.1,23.5,3.9,34l15-19.2l0,0l0,0l0,0
						c11.4-14.6,8.8-35.6-5.8-47L60.3,21.2C58.8,20.1,56.8,20.4,55.7,21.8z"/>
					<g>
						<defs>
							<path id="SVGID_00000074402212150624489190000003664046842179822994_" d="M55.7,21.8L39.1,43c-1.1,1.4-0.9,3.5,0.6,4.6
								l25.1,19.7c10.3,8.4,12.1,23.5,3.9,34l15-19.2l0,0l0,0l0,0c11.4-14.6,8.8-35.6-5.8-47L60.3,21.2
								C58.8,20.1,56.8,20.4,55.7,21.8z"/>
						</defs>
						<clipPath id="SVGID_00000112608648159900507490000008443024806324383377_">
							<use xlink:href="#SVGID_00000074402212150624489190000003664046842179822994_"  style="overflow:visible;"/>
						</clipPath>
					</g>
				</g>
			</g>
		</g>
	</g>
</g>
<g>
	<path class="st6" d="M181.1,107.6c-6.5,0-12.1-1.4-17.1-4.1c-4.9-2.7-8.8-6.5-11.6-11.4c-2.8-4.9-4.2-10.4-4.2-16.6V27.9h17.6v48.6
		c0,3.1,0.7,5.8,2,8.1c1.3,2.3,3.2,4.1,5.5,5.3c2.3,1.2,4.9,1.8,7.7,1.8c3,0,5.6-0.6,7.8-1.8c2.2-1.2,4-3,5.3-5.2
		c1.3-2.3,1.9-5,1.9-8.1V27.9h17.6v47.7c0,6.2-1.4,11.8-4.1,16.6c-2.7,4.8-6.6,8.6-11.5,11.3C193.2,106.3,187.5,107.6,181.1,107.6z"
		/>
	<path class="st6" d="M276.1,61.6c-1.8-3.1-4.2-5.6-7.3-7.5c-3.1-1.9-6.6-2.8-10.6-2.8c-4.2,0-7.9,0.9-11.2,2.6
		c-1.5,0.8-2.8,1.7-4,2.8v-4.3h-17v54.1h17V75.6c0-1.9,0.4-3.5,1.2-5c0.8-1.4,1.9-2.6,3.3-3.3c1.4-0.8,3-1.2,4.9-1.2
		c2.7,0,4.9,0.9,6.6,2.6c1.7,1.7,2.6,4,2.6,6.8v30.8h17V71.8C278.8,68.1,277.9,64.7,276.1,61.6z"/>
	<path class="st7" d="M376.1,39.5c-2.3-3.7-5.5-6.6-9.5-8.6c-4-2-8.5-3-13.5-3h-15.4h-4.1h-13.4v78.6h17.5V77.8h15.4
		c5,0,9.5-1,13.5-3.1c4-2,7.2-4.9,9.5-8.7c2.3-3.7,3.5-8.2,3.5-13.3C379.6,47.7,378.4,43.2,376.1,39.5z M360.7,59
		c-1,1.7-2.4,3-4.2,3.9c-1.8,0.9-3.7,1.3-5.9,1.3h-12.8V41.4h12.8c2.2,0,4.1,0.4,5.9,1.3c1.8,0.9,3.2,2.2,4.2,3.9
		c1,1.7,1.6,3.7,1.6,6.1C362.2,55.2,361.7,57.3,360.7,59z"/>
	<path class="st7" d="M435.6,64.1c-2.3-4.1-5.5-7.3-9.6-9.6c-4.1-2.3-8.8-3.4-14.1-3.4c-5.5,0-10.4,1.2-14.8,3.7
		c-4.4,2.4-7.8,5.8-10.4,10.1c-2.6,4.3-3.8,9.1-3.8,14.5c0,5.4,1.3,10.3,3.9,14.6c2.6,4.3,6.2,7.7,10.7,10.1
		c4.6,2.4,9.8,3.6,15.6,3.6c4.5,0,8.7-0.8,12.5-2.3c3.8-1.6,7-3.9,9.7-7l-9.3-9.3c-1.6,1.9-3.5,3.2-5.7,4.2
		c-2.2,0.9-4.6,1.4-7.2,1.4c-2.9,0-5.4-0.6-7.5-1.8c-2.1-1.2-3.7-3-4.9-5.2c-0.4-0.7-0.7-1.6-0.9-2.4l38.7-0.1
		c0.3-1.4,0.5-2.7,0.6-3.7c0.1-1.1,0.2-2.1,0.2-3.1C439.1,72.9,438,68.2,435.6,64.1z M405,66c2-1.2,4.3-1.8,7-1.8
		c2.5,0,4.7,0.5,6.4,1.6c1.7,1.1,3.1,2.6,4,4.7c0.4,0.9,0.7,1.8,0.9,2.9l-23.6,0.1c0.2-0.8,0.5-1.5,0.8-2.2
		C401.5,68.9,403,67.2,405,66z"/>
</g>
<g>
	<path class="st6" d="M293.2,33l4.1,0.1l0.1,0l3.7-2l2.8-1.5c-1.4-0.9-3-1.4-4.9-1.4c-2.7,0-4.9,0.9-6.6,2.7c-0.6,0.6-1,1.3-1.4,2
		L293.2,33z"/>
	<path class="st6" d="M306.9,33c0,0,0,0.1,0,0.1c-0.8,1.5-4.2,3.2-8.5,4.2c-3.6,0.9-6.9,1-8.7,0.4c0,2.5,0.9,4.7,2.6,6.5
		c1.7,1.8,4,2.7,6.6,2.7c2.7,0,4.9-0.9,6.6-2.7c1.7-1.8,2.6-4,2.6-6.6C308.1,35.9,307.7,34.4,306.9,33z"/>
</g>
<path class="st7" d="M305.6,25.5L305.6,25.5l8.9-4.7l-19.7-0.4l-17.4,9.2l7.2,0.2c-1.4,1.6-1.6,3.3-1.5,4.9
	c-0.6,0.4-0.9,0.9-0.8,1.5c0.1,0.4,0.5,0.7,1,0.9c0,0.2,0,0.3,0,0.5c0,2.3-2.4,3.9-2.4,3.9s0,0,1.9,0.4c1.9,0.4,2.5-0.6,2.5-0.6
	c2-2.2,0.5-4.3,0.5-4.3c-0.1-0.1-0.1-0.2-0.1-0.3c0.5-0.4,0.7-0.8,0.6-1.3c-0.1-0.5-0.7-0.9-1.3-0.9c-0.8-6.3,11-9.7,11-9.7l-0.1,0
	c0.1,0,0.2-0.1,0.2-0.1l0.1,0.3c-0.1,0-6.1,1.7-9.1,5l0.6,0l0.9,3.7c0.1,0.2,0.2,0.4,0.5,0.6c1.3,0.9,5,1,9.2,0
	c4.2-1,7.5-2.7,8.3-4.1c0.1-0.3,0.2-0.5,0.1-0.8L305.6,25.5z"/>
<path class="st6" d="M303.9,106.4h-10c-1.9,0-3.5-1.6-3.5-3.5v-47c0-1.9,1.6-3.5,3.5-3.5h10c1.9,0,3.5,1.6,3.5,3.5v47
	C307.4,104.8,305.8,106.4,303.9,106.4z"/>
</svg>
