<?xml version="1.0" encoding="utf-8"?>
<!-- Generator: Adobe Illustrator 26.0.1, SVG Export Plug-In . SVG Version: 6.00 Build 0)  -->
<svg version="1.1" id="Layer_1" xmlns="http://www.w3.org/2000/svg" xmlns:xlink="http://www.w3.org/1999/xlink" x="0px" y="0px"
	 viewBox="0 0 418.3 105.9" style="enable-background:new 0 0 418.3 105.9;" xml:space="preserve">
<style type="text/css">
	.st0{fill:#FFFFFF;}
	.st1{fill:url(#SVGID_1_);}
	.st2{fill:url(#SVGID_00000042721397433183541070000015921592179668899762_);}
	.st3{fill:url(#SVGID_00000085931037311365337260000017092574572864512943_);}
	.st4{fill:url(#SVGID_00000114075442572887109910000001094456112411839635_);}
	.st5{fill:none;}
</style>
<path class="st0" d="M9,0.1c0,0-9,0-9,8.9v88c0,0,0,8.9,8.9,8.9h88c0,0,8.9,0,8.9-8.9V8.9c0,0,0-8.9-8.9-8.9L9,0.1L9,0.1z"/>
<linearGradient id="SVGID_1_" gradientUnits="userSpaceOnUse" x1="-224.4145" y1="617.4259" x2="-195.4745" y2="617.4259" gradientTransform="matrix(0.62 -0.79 0.79 0.62 -307.36 -478.25)">
	<stop  offset="0" style="stop-color:#C2489A"/>
	<stop  offset="0.4" style="stop-color:#C1489A"/>
	<stop  offset="0.55" style="stop-color:#BC499B"/>
	<stop  offset="0.66" style="stop-color:#B3499B"/>
	<stop  offset="0.75" style="stop-color:#A74A9B"/>
	<stop  offset="0.83" style="stop-color:#974A9C"/>
	<stop  offset="0.9" style="stop-color:#834A9D"/>
	<stop  offset="0.96" style="stop-color:#6C4A9D"/>
	<stop  offset="1" style="stop-color:#564A9E"/>
</linearGradient>
<path class="st1" d="M47.9,51l21.8,17c0.2,0.2,0.3,0.5,0.1,0.8c0,0,0,0,0,0L52.6,90.7c-0.2,0.2-0.5,0.3-0.8,0.1l-21.8-17
	c-0.2-0.2-0.3-0.5-0.1-0.8l17.1-21.9C47.3,50.9,47.7,50.8,47.9,51z"/>
<linearGradient id="SVGID_00000075149386259891947170000015666530659010155707_" gradientUnits="userSpaceOnUse" x1="-219.5045" y1="617.4122" x2="-189.4045" y2="617.4122" gradientTransform="matrix(0.62 -0.79 0.79 0.62 -307.36 -478.25)">
	<stop  offset="0" style="stop-color:#89469A"/>
	<stop  offset="0.44" style="stop-color:#88469A"/>
	<stop  offset="0.63" style="stop-color:#82479B"/>
	<stop  offset="0.77" style="stop-color:#79489B"/>
	<stop  offset="0.89" style="stop-color:#6C499C"/>
	<stop  offset="0.99" style="stop-color:#584A9E"/>
	<stop  offset="1" style="stop-color:#564A9E"/>
</linearGradient>
<path style="fill:url(#SVGID_00000075149386259891947170000015666530659010155707_);" d="M40,75.4l7.9,6.2c1.5-1.9,4.2-2.2,6.2-0.8
	L70,60.5L55.1,48.9L39.2,69.2c1.9,1.4,2.3,4.1,0.9,6C40.1,75.2,40.1,75.3,40,75.4z"/>
<linearGradient id="SVGID_00000014618610114310788030000010358965992880690363_" gradientUnits="userSpaceOnUse" x1="-205.7511" y1="584.0543" x2="-169.1511" y2="647.4543" gradientTransform="matrix(0.62 -0.79 0.79 0.62 -307.36 -478.25)">
	<stop  offset="0" style="stop-color:#4784C5"/>
	<stop  offset="4.000000e-02" style="stop-color:#488FCD"/>
	<stop  offset="0.11" style="stop-color:#4AA0D8"/>
	<stop  offset="0.19" style="stop-color:#4DAEE2"/>
	<stop  offset="0.28" style="stop-color:#4FB9EA"/>
	<stop  offset="0.39" style="stop-color:#51C1EF"/>
	<stop  offset="0.55" style="stop-color:#52C6F3"/>
	<stop  offset="1" style="stop-color:#51C8F4"/>
</linearGradient>
<path style="fill:url(#SVGID_00000014618610114310788030000010358965992880690363_);" d="M47.6,14.9L29.9,37.5l23.7,18.6
	C62.5,63.3,64,76.3,57,85.3l12.9-16.5l0,0c9.7-12.5,7.5-30.5-4.9-40.2c0,0,0,0-0.1-0.1L47.6,14.9z"/>
<linearGradient id="SVGID_00000176038122950245845710000008944833444301003936_" gradientUnits="userSpaceOnUse" x1="-187.2037" y1="585.7437" x2="-187.2037" y2="631.4836" gradientTransform="matrix(0.62 -0.79 0.79 0.62 -307.36 -478.25)">
	<stop  offset="0" style="stop-color:#426CB2"/>
	<stop  offset="3.000000e-02" style="stop-color:#436FB5"/>
	<stop  offset="0.27" style="stop-color:#478BC9"/>
	<stop  offset="0.49" style="stop-color:#4BA4DB"/>
	<stop  offset="0.69" style="stop-color:#4FB7E8"/>
	<stop  offset="0.87" style="stop-color:#52C3F0"/>
	<stop  offset="1" style="stop-color:#51C8F4"/>
</linearGradient>
<path style="fill:url(#SVGID_00000176038122950245845710000008944833444301003936_);" d="M69.8,68.7L69.8,68.7
	c5.1-6.5,7.2-15,5.6-23.1c-1.3-2.7-3.2-5.1-5.6-7l-18-14c-1.5,1.9-4.2,2.2-6.2,0.8l-6.2,7.8c1.9,1.5,2.3,4.3,0.8,6.2l19.6,15.4
	c5.1,4.4,7.7,11,7,17.7L69.8,68.7L69.8,68.7z"/>
<path class="st5" d="M45.9,17.1L31.6,35.4c-0.9,1.2-0.7,2.9,0.5,3.9c0,0,0,0,0.1,0l21.5,16.8C62.5,63.3,64,76.3,57,85.3l12.9-16.5
	l0,0c9.7-12.5,7.5-30.5-4.9-40.2c0,0,0,0-0.1-0.1L49.8,16.6C48.6,15.7,46.8,15.9,45.9,17.1z"/>
<path class="st0" d="M160.1,97c-6,0.1-11.8-1.3-17.1-4.1c-4.9-2.6-8.9-6.6-11.6-11.4c-2.8-5.1-4.3-10.8-4.2-16.6V17.3h17.6v48.6
	c-0.1,2.8,0.6,5.6,2,8.1c1.3,2.3,3.2,4.1,5.5,5.3c2.4,1.2,5,1.8,7.7,1.8c2.7,0.1,5.4-0.6,7.8-1.8c2.2-1.2,4-3,5.3-5.2
	c1.3-2.5,2-5.3,1.9-8.1V17.3h17.6V65c0.1,5.8-1.3,11.5-4.1,16.6c-2.7,4.8-6.7,8.7-11.5,11.3C171.8,95.7,166,97.1,160.1,97z"/>
<path class="st0" d="M255.1,51c-1.8-3.1-4.3-5.7-7.3-7.5c-3.2-1.9-6.9-2.9-10.6-2.8c-3.9-0.1-7.7,0.8-11.2,2.6
	c-1.4,0.8-2.8,1.7-4,2.8v-4.3h-17v54.1h17V65c0-1.7,0.4-3.5,1.2-5c0.8-1.4,1.9-2.5,3.3-3.3c1.5-0.8,3.2-1.2,4.9-1.2
	c2.5-0.1,4.8,0.9,6.6,2.6c1.8,1.8,2.7,4.3,2.6,6.8v30.8h17V61.2C257.8,57.6,256.9,54,255.1,51z"/>
<path class="st0" d="M355.1,28.9c-2.3-3.7-5.6-6.7-9.5-8.6c-4.2-2-8.8-3.1-13.5-3h-32.9v78.6h17.5V67.2h15.4c4.7,0.1,9.3-1,13.5-3.1
	c3.9-1.9,7.2-4.9,9.5-8.7c2.4-4,3.6-8.6,3.5-13.3C358.7,37.4,357.5,32.8,355.1,28.9z M339.7,48.4c-1,1.7-2.4,3-4.2,3.9
	c-1.8,0.9-3.9,1.3-5.9,1.3h-12.8V30.8h12.8c2,0,4.1,0.4,5.9,1.3c1.8,0.9,3.2,2.2,4.2,3.9c1.1,1.8,1.6,4,1.6,6.1
	C341.3,44.3,340.7,46.4,339.7,48.4z"/>
<path class="st0" d="M414.6,53.5c-2.2-4-5.6-7.4-9.6-9.6c-4.3-2.3-9.2-3.5-14.1-3.4c-5.2-0.1-10.3,1.2-14.8,3.7
	c-8.9,4.9-14.4,14.4-14.2,24.6c-0.1,5.1,1.3,10.2,3.9,14.6c2.6,4.3,6.3,7.8,10.7,10.1c4.8,2.5,10.2,3.7,15.6,3.6
	c4.3,0,8.5-0.8,12.5-2.3c3.7-1.5,7.1-3.9,9.7-7l-9.3-9.3c-1.6,1.8-3.5,3.3-5.7,4.2c-2.3,0.9-4.7,1.4-7.2,1.4
	c-2.6,0.1-5.2-0.6-7.5-1.8c-2.1-1.2-3.8-3-4.9-5.2c-0.4-0.8-0.7-1.6-0.9-2.4l38.7-0.1c0.3-1.2,0.5-2.5,0.6-3.7
	c0.1-1.1,0.2-2.1,0.2-3.1C418.1,62.3,417,57.6,414.6,53.5z M384,55.4c2.1-1.2,4.5-1.9,7-1.8c2.2-0.1,4.5,0.5,6.4,1.6
	c1.8,1.1,3.2,2.8,4,4.7c0.4,0.9,0.7,1.9,0.9,2.9l-23.6,0.1c0.2-0.8,0.5-1.5,0.8-2.2C380.3,58.4,381.9,56.6,384,55.4z"/>
<path class="st0" d="M272.2,22.4l4.1,0.1h0.1l3.7-2l2.8-1.5c-1.5-0.9-3.2-1.4-4.9-1.4c-2.5-0.1-4.9,0.9-6.6,2.7
	c-0.6,0.6-1,1.3-1.4,2L272.2,22.4z"/>
<path class="st0" d="M285.9,22.4L285.9,22.4c-0.8,1.6-4.2,3.3-8.5,4.3c-3.6,0.9-6.9,1-8.7,0.4c0,2.4,0.9,4.8,2.6,6.5
	c1.7,1.8,4.1,2.8,6.6,2.7c2.5,0.1,4.9-0.9,6.6-2.7c1.7-1.8,2.6-4.1,2.6-6.6C287.1,25.3,286.7,23.8,285.9,22.4z"/>
<path class="st0" d="M284.6,14.9L284.6,14.9l8.9-4.7l-19.7-0.4L256.4,19l7.2,0.2c-1.2,1.4-1.7,3.1-1.5,4.9c-0.6,0.3-0.9,0.9-0.8,1.5
	c0.2,0.4,0.5,0.8,1,0.9V27c0,2.3-2.4,3.9-2.4,3.9l1.9,0.4c1.9,0.4,2.5-0.6,2.5-0.6c1.2-1.1,1.4-2.9,0.5-4.3
	c-0.1-0.1-0.1-0.2-0.1-0.3c0.4-0.3,0.7-0.8,0.6-1.3c-0.2-0.6-0.7-0.9-1.3-0.9c-0.8-6.3,11-9.7,11-9.7h-0.1c0.1,0,0.1,0,0.2-0.1
	l0.1,0.3c-0.1,0-6.1,1.7-9.1,5h0.6l0.9,3.7c0.1,0.2,0.3,0.5,0.5,0.6c1.3,0.9,5,1,9.2,0s7.5-2.7,8.3-4.1c0.1-0.2,0.2-0.5,0.1-0.8
	L284.6,14.9z"/>
<path class="st0" d="M282.9,95.8h-10c-1.9,0-3.5-1.6-3.5-3.5v-47c0-1.9,1.6-3.5,3.5-3.5h10c1.9,0,3.5,1.6,3.5,3.5v47
	C286.3,94.2,284.8,95.7,282.9,95.8z"/>
</svg>
